<svg width="297" height="332" viewBox="0 0 297 332" fill="none" xmlns="http://www.w3.org/2000/svg">
<path d="M225.88 26.08C201.947 10.2871 174.161 1.31794 145.511 0.137406C116.861 -1.04313 88.4315 5.60961 63.2802 19.38L66.5602 22.66L111.1 67.16L147.93 103.99L179.76 72.16C202.36 82.979 219.743 102.323 228.094 125.947C236.444 149.57 235.08 175.542 224.3 198.16L179.76 153.62L98.3102 72.16L94.5002 68.35L53.7502 27.66L52.1702 26.08C43.9949 31.5158 36.342 37.699 29.3102 44.55C28.7602 45.07 28.2202 45.55 27.6902 46.12C13.8693 59.9369 4.67104 77.6981 1.36156 96.9587C-1.94793 116.219 0.794092 136.032 9.21016 153.67L49.9402 112.94L53.7502 116.74L94.4802 157.48L135.22 198.21L139.03 202.02L161.31 224.29L179.77 242.76C178.7 243.27 177.63 243.76 176.55 244.23C159.165 251.759 139.918 253.883 121.31 250.327C102.701 246.771 85.5936 237.699 72.2102 224.29L53.7502 205.83L49.9402 202.02L27.6702 224.29C13.8411 238.102 4.63868 255.865 1.33226 275.129C-1.97416 294.392 0.77837 314.207 9.21016 331.84L52.2102 288.84C87.0596 311.875 129.632 320.123 170.563 311.77C211.494 303.416 247.43 279.144 270.465 244.295C293.501 209.446 301.749 166.873 293.395 125.942C285.041 85.0112 260.77 49.0754 225.92 26.04" fill="url(#paint0_linear_18_262)"/>
<defs>
<linearGradient id="paint0_linear_18_262" x1="145.64" y1="21.61" x2="149.47" y2="318.09" gradientUnits="userSpaceOnUse">
<stop stop-color="#FA5901"/>
<stop offset="1" stop-color="#EB005C"/>
</linearGradient>
</defs>
</svg>
