<svg width="2917" height="443" viewBox="0 0 2917 443" fill="none" xmlns="http://www.w3.org/2000/svg">
<path d="M36.3633 223.415C21.5774 212.872 11.8499 202.117 7.10998 191.15C2.40539 180.183 0.0354074 165.819 0.0354074 148.13V55.1196C0.0354074 39.0932 5.05828 25.897 15.1042 15.5665C25.1501 5.23593 38.2027 0.0706787 54.1912 0.0706787H288.112V54.4828L267.171 111.442H134.806V131.679L251.784 212.059C266.57 222.177 276.297 232.861 281.037 244.005C285.742 255.185 288.112 269.619 288.112 287.344V387.961C288.112 403.987 283.089 417.183 273.043 427.514C262.997 437.844 250.157 443.009 234.557 443.009H0V332.275H153.271V303.158L36.2926 223.415H36.3633Z" fill="white"/>
<path d="M606.397 442.974H391.542C375.554 442.974 362.501 437.809 352.455 427.478C342.409 417.148 337.386 403.952 337.386 387.925V55.0489C337.386 39.0225 342.409 25.8263 352.455 15.4958C362.501 5.16525 375.554 0 391.542 0H606.397C622.421 0 635.438 5.16525 645.484 15.4958C655.53 25.8263 660.553 39.0225 660.553 55.0489V387.925C660.553 403.952 655.53 417.148 645.484 427.478C635.438 437.809 622.385 442.974 606.397 442.974ZM525.747 111.407H472.192V332.275H525.747V111.407Z" fill="white"/>
<path d="M991.147 442.974H722.137V0H991.147C1007.17 0 1020.19 5.16525 1030.23 15.4958C1040.28 25.8263 1045.3 39.0225 1045.3 55.0489V156.939C1045.3 172.965 1039.75 185.843 1028.68 195.537C1017.61 205.231 1004.66 210.078 989.909 210.078V222.106C1004.7 222.106 1017.61 226.953 1028.68 236.647C1039.75 246.376 1045.3 259.431 1045.3 275.882V387.89C1045.3 403.916 1040.28 417.112 1030.23 427.443C1020.19 437.773 1007.14 442.939 991.147 442.939V442.974ZM910.497 160.76V111.407H856.943V160.76H910.497ZM856.943 271.495V332.239H910.497V271.495H856.943Z" fill="white"/>
<path d="M1388.81 442.974H1100.7V0H1388.81V55.0489L1367.27 111.371H1234.9V160.724H1367.27V271.459H1234.9V332.204H1388.81V442.939V442.974Z" fill="white"/>
<path d="M1438.05 0H1707.7C1723.29 0 1736.1 5.16525 1746.18 15.4958C1756.23 25.8263 1761.25 39.0225 1761.25 55.0489V229.076C1761.25 239.619 1757.85 249.878 1751.1 259.784C1744.34 269.69 1735.82 276.129 1725.56 279.101L1768.04 387.961V443.01H1636.31L1599.99 305.069H1572.89V443.01H1438.08V0.0353591L1438.05 0ZM1626.44 111.407H1572.89V194.299H1626.44V111.407Z" fill="white"/>
<path d="M1865.28 0H2089.37L2149.71 387.925V442.974H2014.91L2006.91 353.75H1947.81L1939.18 442.974H1804.97V387.925L1865.28 0ZM1957.6 243.015H1997.01L1984.7 111.371H1969.91L1957.6 243.015Z" fill="white"/>
<path d="M2404.54 205.054H2415.61L2397.75 55.0843V0.0353591H2522.09V443.01H2379.25L2315.83 238.593H2305.36L2322.58 387.925V442.974H2198.85V0H2341.68L2404.47 205.018L2404.54 205.054Z" fill="white"/>
<path d="M2631.67 0H2855.76L2916.1 387.925V442.974H2781.3L2773.3 353.75H2714.19L2705.56 442.974H2571.36V387.925L2631.67 0ZM2724.03 243.015H2763.43L2751.12 111.371H2736.34L2724.03 243.015Z" fill="white"/>
</svg>
